<mxfile host="app.diagrams.net" modified="2023-12-01T20:29:05.788Z" agent="Mozilla/5.0 (Windows NT 10.0; Win64; x64) AppleWebKit/537.36 (KHTML, like Gecko) Chrome/119.0.0.0 Safari/537.36 Edg/119.0.0.0" etag="uwpEUUZQ4eE8y2obcWkg" version="22.1.5" type="device">
  <diagram id="C5RBs43oDa-KdzZeNtuy" name="Page-1">
    <mxGraphModel dx="2109" dy="1746" grid="1" gridSize="10" guides="1" tooltips="1" connect="1" arrows="1" fold="1" page="1" pageScale="1" pageWidth="827" pageHeight="1169" math="0" shadow="0">
      <root>
        <mxCell id="WIyWlLk6GJQsqaUBKTNV-0" />
        <mxCell id="WIyWlLk6GJQsqaUBKTNV-1" parent="WIyWlLk6GJQsqaUBKTNV-0" />
        <mxCell id="4e1TxizYNUvrVtqqxfv--0" value="User" style="swimlane;fontStyle=1;align=center;verticalAlign=top;childLayout=stackLayout;horizontal=1;startSize=26;horizontalStack=0;resizeParent=1;resizeParentMax=0;resizeLast=0;collapsible=1;marginBottom=0;whiteSpace=wrap;html=1;" parent="WIyWlLk6GJQsqaUBKTNV-1" vertex="1">
          <mxGeometry x="-310" y="-416" width="160" height="128" as="geometry" />
        </mxCell>
        <mxCell id="4e1TxizYNUvrVtqqxfv--1" value="- long id&lt;br&gt;- String email&lt;br&gt;-String username&lt;br&gt;-String role" style="text;strokeColor=none;fillColor=none;align=left;verticalAlign=top;spacingLeft=4;spacingRight=4;overflow=hidden;rotatable=0;points=[[0,0.5],[1,0.5]];portConstraint=eastwest;whiteSpace=wrap;html=1;" parent="4e1TxizYNUvrVtqqxfv--0" vertex="1">
          <mxGeometry y="26" width="160" height="94" as="geometry" />
        </mxCell>
        <mxCell id="4e1TxizYNUvrVtqqxfv--53" value="" style="endArrow=open;endFill=1;endSize=12;html=1;rounded=0;" parent="4e1TxizYNUvrVtqqxfv--0" edge="1">
          <mxGeometry width="160" relative="1" as="geometry">
            <mxPoint x="-80" y="76" as="sourcePoint" />
            <mxPoint y="76" as="targetPoint" />
          </mxGeometry>
        </mxCell>
        <mxCell id="4e1TxizYNUvrVtqqxfv--2" value="" style="line;strokeWidth=1;fillColor=none;align=left;verticalAlign=middle;spacingTop=-1;spacingLeft=3;spacingRight=3;rotatable=0;labelPosition=right;points=[];portConstraint=eastwest;strokeColor=inherit;" parent="4e1TxizYNUvrVtqqxfv--0" vertex="1">
          <mxGeometry y="120" width="160" height="8" as="geometry" />
        </mxCell>
        <mxCell id="4e1TxizYNUvrVtqqxfv--4" value="ForumPost" style="swimlane;fontStyle=0;childLayout=stackLayout;horizontal=1;startSize=26;fillColor=none;horizontalStack=0;resizeParent=1;resizeParentMax=0;resizeLast=0;collapsible=1;marginBottom=0;whiteSpace=wrap;html=1;" parent="WIyWlLk6GJQsqaUBKTNV-1" vertex="1">
          <mxGeometry x="-90" y="-406" width="180" height="52" as="geometry" />
        </mxCell>
        <mxCell id="4e1TxizYNUvrVtqqxfv--37" value="" style="endArrow=open;endFill=1;endSize=12;html=1;rounded=0;entryX=0.252;entryY=1.116;entryDx=0;entryDy=0;entryPerimeter=0;" parent="4e1TxizYNUvrVtqqxfv--4" target="4e1TxizYNUvrVtqqxfv--10" edge="1">
          <mxGeometry width="160" relative="1" as="geometry">
            <mxPoint x="60" as="sourcePoint" />
            <mxPoint x="220" as="targetPoint" />
          </mxGeometry>
        </mxCell>
        <mxCell id="4e1TxizYNUvrVtqqxfv--6" value="- LocalDateTime postedAt" style="text;strokeColor=none;fillColor=none;align=left;verticalAlign=top;spacingLeft=4;spacingRight=4;overflow=hidden;rotatable=0;points=[[0,0.5],[1,0.5]];portConstraint=eastwest;whiteSpace=wrap;html=1;" parent="4e1TxizYNUvrVtqqxfv--4" vertex="1">
          <mxGeometry y="26" width="180" height="26" as="geometry" />
        </mxCell>
        <mxCell id="4e1TxizYNUvrVtqqxfv--9" value="ForumPostRating" style="swimlane;fontStyle=0;childLayout=stackLayout;horizontal=1;startSize=26;fillColor=none;horizontalStack=0;resizeParent=1;resizeParentMax=0;resizeLast=0;collapsible=1;marginBottom=0;whiteSpace=wrap;html=1;" parent="WIyWlLk6GJQsqaUBKTNV-1" vertex="1">
          <mxGeometry x="-66" y="-550" width="140" height="60" as="geometry" />
        </mxCell>
        <mxCell id="4e1TxizYNUvrVtqqxfv--55" value="" style="endArrow=open;endFill=1;endSize=12;html=1;rounded=0;entryX=0.941;entryY=0.017;entryDx=0;entryDy=0;entryPerimeter=0;" parent="4e1TxizYNUvrVtqqxfv--9" target="4e1TxizYNUvrVtqqxfv--0" edge="1">
          <mxGeometry width="160" relative="1" as="geometry">
            <mxPoint y="34.329999999999984" as="sourcePoint" />
            <mxPoint x="160" y="34.329999999999984" as="targetPoint" />
            <Array as="points">
              <mxPoint x="-94" y="34" />
            </Array>
          </mxGeometry>
        </mxCell>
        <mxCell id="4e1TxizYNUvrVtqqxfv--10" value="- bool value" style="text;strokeColor=none;fillColor=none;align=left;verticalAlign=top;spacingLeft=4;spacingRight=4;overflow=hidden;rotatable=0;points=[[0,0.5],[1,0.5]];portConstraint=eastwest;whiteSpace=wrap;html=1;" parent="4e1TxizYNUvrVtqqxfv--9" vertex="1">
          <mxGeometry y="26" width="140" height="34" as="geometry" />
        </mxCell>
        <mxCell id="4e1TxizYNUvrVtqqxfv--13" value="PostComment" style="swimlane;fontStyle=0;childLayout=stackLayout;horizontal=1;startSize=26;fillColor=none;horizontalStack=0;resizeParent=1;resizeParentMax=0;resizeLast=0;collapsible=1;marginBottom=0;whiteSpace=wrap;html=1;" parent="WIyWlLk6GJQsqaUBKTNV-1" vertex="1">
          <mxGeometry x="-80" y="-304" width="150" height="56" as="geometry" />
        </mxCell>
        <mxCell id="4e1TxizYNUvrVtqqxfv--40" value="" style="endArrow=open;endFill=1;endSize=12;html=1;rounded=0;entryX=0.427;entryY=1.175;entryDx=0;entryDy=0;entryPerimeter=0;" parent="4e1TxizYNUvrVtqqxfv--13" target="4e1TxizYNUvrVtqqxfv--2" edge="1">
          <mxGeometry width="160" relative="1" as="geometry">
            <mxPoint y="25.329999999999984" as="sourcePoint" />
            <mxPoint x="160" y="25.329999999999984" as="targetPoint" />
            <Array as="points">
              <mxPoint y="44" />
              <mxPoint x="-162" y="44" />
            </Array>
          </mxGeometry>
        </mxCell>
        <mxCell id="4e1TxizYNUvrVtqqxfv--41" value="- LocalDateTime postedAt" style="text;html=1;align=center;verticalAlign=middle;resizable=0;points=[];autosize=1;strokeColor=none;fillColor=none;" parent="4e1TxizYNUvrVtqqxfv--13" vertex="1">
          <mxGeometry y="26" width="150" height="30" as="geometry" />
        </mxCell>
        <mxCell id="4e1TxizYNUvrVtqqxfv--8" value="" style="endArrow=open;endFill=1;endSize=12;html=1;rounded=0;entryX=1.01;entryY=0.26;entryDx=0;entryDy=0;entryPerimeter=0;exitX=0;exitY=0.5;exitDx=0;exitDy=0;" parent="WIyWlLk6GJQsqaUBKTNV-1" source="4e1TxizYNUvrVtqqxfv--6" target="4e1TxizYNUvrVtqqxfv--1" edge="1">
          <mxGeometry width="160" relative="1" as="geometry">
            <mxPoint x="-100" y="-285" as="sourcePoint" />
            <mxPoint x="60" y="-285" as="targetPoint" />
          </mxGeometry>
        </mxCell>
        <mxCell id="4e1TxizYNUvrVtqqxfv--17" value="Forum" style="swimlane;fontStyle=1;align=center;verticalAlign=top;childLayout=stackLayout;horizontal=1;startSize=26;horizontalStack=0;resizeParent=1;resizeParentMax=0;resizeLast=0;collapsible=1;marginBottom=0;whiteSpace=wrap;html=1;" parent="WIyWlLk6GJQsqaUBKTNV-1" vertex="1">
          <mxGeometry x="170" y="-428" width="160" height="86" as="geometry" />
        </mxCell>
        <mxCell id="4e1TxizYNUvrVtqqxfv--18" value="+ field: type" style="text;strokeColor=none;fillColor=none;align=left;verticalAlign=top;spacingLeft=4;spacingRight=4;overflow=hidden;rotatable=0;points=[[0,0.5],[1,0.5]];portConstraint=eastwest;whiteSpace=wrap;html=1;" parent="4e1TxizYNUvrVtqqxfv--17" vertex="1">
          <mxGeometry y="26" width="160" height="26" as="geometry" />
        </mxCell>
        <mxCell id="4e1TxizYNUvrVtqqxfv--35" value="" style="endArrow=open;endFill=1;endSize=12;html=1;rounded=0;" parent="4e1TxizYNUvrVtqqxfv--17" edge="1">
          <mxGeometry width="160" relative="1" as="geometry">
            <mxPoint x="-80" y="42.33000000000001" as="sourcePoint" />
            <mxPoint y="42" as="targetPoint" />
          </mxGeometry>
        </mxCell>
        <mxCell id="4e1TxizYNUvrVtqqxfv--19" value="" style="line;strokeWidth=1;fillColor=none;align=left;verticalAlign=middle;spacingTop=-1;spacingLeft=3;spacingRight=3;rotatable=0;labelPosition=right;points=[];portConstraint=eastwest;strokeColor=inherit;" parent="4e1TxizYNUvrVtqqxfv--17" vertex="1">
          <mxGeometry y="52" width="160" height="8" as="geometry" />
        </mxCell>
        <mxCell id="4e1TxizYNUvrVtqqxfv--20" value="+ method(type): type" style="text;strokeColor=none;fillColor=none;align=left;verticalAlign=top;spacingLeft=4;spacingRight=4;overflow=hidden;rotatable=0;points=[[0,0.5],[1,0.5]];portConstraint=eastwest;whiteSpace=wrap;html=1;" parent="4e1TxizYNUvrVtqqxfv--17" vertex="1">
          <mxGeometry y="60" width="160" height="26" as="geometry" />
        </mxCell>
        <mxCell id="4e1TxizYNUvrVtqqxfv--21" value="VideoGame" style="swimlane;fontStyle=0;childLayout=stackLayout;horizontal=1;startSize=26;fillColor=none;horizontalStack=0;resizeParent=1;resizeParentMax=0;resizeLast=0;collapsible=1;marginBottom=0;whiteSpace=wrap;html=1;" parent="WIyWlLk6GJQsqaUBKTNV-1" vertex="1">
          <mxGeometry x="180" y="-580" width="140" height="120" as="geometry" />
        </mxCell>
        <mxCell id="4e1TxizYNUvrVtqqxfv--22" value="- String publisher" style="text;strokeColor=none;fillColor=none;align=left;verticalAlign=top;spacingLeft=4;spacingRight=4;overflow=hidden;rotatable=0;points=[[0,0.5],[1,0.5]];portConstraint=eastwest;whiteSpace=wrap;html=1;" parent="4e1TxizYNUvrVtqqxfv--21" vertex="1">
          <mxGeometry y="26" width="140" height="26" as="geometry" />
        </mxCell>
        <mxCell id="4e1TxizYNUvrVtqqxfv--23" value="-LocalDate releaseDate&lt;br&gt;" style="text;strokeColor=none;fillColor=none;align=left;verticalAlign=top;spacingLeft=4;spacingRight=4;overflow=hidden;rotatable=0;points=[[0,0.5],[1,0.5]];portConstraint=eastwest;whiteSpace=wrap;html=1;" parent="4e1TxizYNUvrVtqqxfv--21" vertex="1">
          <mxGeometry y="52" width="140" height="68" as="geometry" />
        </mxCell>
        <mxCell id="4e1TxizYNUvrVtqqxfv--26" value="" style="endArrow=open;endFill=1;endSize=12;html=1;rounded=0;" parent="WIyWlLk6GJQsqaUBKTNV-1" edge="1">
          <mxGeometry width="160" relative="1" as="geometry">
            <mxPoint y="-304" as="sourcePoint" />
            <mxPoint y="-356" as="targetPoint" />
          </mxGeometry>
        </mxCell>
        <mxCell id="4e1TxizYNUvrVtqqxfv--29" value="" style="endArrow=open;endFill=1;endSize=12;html=1;rounded=0;" parent="WIyWlLk6GJQsqaUBKTNV-1" edge="1">
          <mxGeometry width="160" relative="1" as="geometry">
            <mxPoint x="250" y="-429.33" as="sourcePoint" />
            <mxPoint x="249" y="-460" as="targetPoint" />
          </mxGeometry>
        </mxCell>
        <mxCell id="4e1TxizYNUvrVtqqxfv--30" value="ForumPostCommentRating" style="swimlane;fontStyle=1;align=center;verticalAlign=top;childLayout=stackLayout;horizontal=1;startSize=26;horizontalStack=0;resizeParent=1;resizeParentMax=0;resizeLast=0;collapsible=1;marginBottom=0;whiteSpace=wrap;html=1;" parent="WIyWlLk6GJQsqaUBKTNV-1" vertex="1">
          <mxGeometry x="-80" y="-200" width="170" height="60" as="geometry" />
        </mxCell>
        <mxCell id="4e1TxizYNUvrVtqqxfv--57" value="" style="endArrow=open;endFill=1;endSize=12;html=1;rounded=0;entryX=0.174;entryY=0.867;entryDx=0;entryDy=0;entryPerimeter=0;" parent="4e1TxizYNUvrVtqqxfv--30" target="4e1TxizYNUvrVtqqxfv--2" edge="1">
          <mxGeometry width="160" relative="1" as="geometry">
            <mxPoint y="38.329999999999984" as="sourcePoint" />
            <mxPoint x="-200" y="-80" as="targetPoint" />
            <Array as="points">
              <mxPoint x="-200" y="38" />
            </Array>
          </mxGeometry>
        </mxCell>
        <mxCell id="4e1TxizYNUvrVtqqxfv--31" value="-bool value" style="text;strokeColor=none;fillColor=none;align=left;verticalAlign=top;spacingLeft=4;spacingRight=4;overflow=hidden;rotatable=0;points=[[0,0.5],[1,0.5]];portConstraint=eastwest;whiteSpace=wrap;html=1;" parent="4e1TxizYNUvrVtqqxfv--30" vertex="1">
          <mxGeometry y="26" width="170" height="26" as="geometry" />
        </mxCell>
        <mxCell id="4e1TxizYNUvrVtqqxfv--32" value="" style="line;strokeWidth=1;fillColor=none;align=left;verticalAlign=middle;spacingTop=-1;spacingLeft=3;spacingRight=3;rotatable=0;labelPosition=right;points=[];portConstraint=eastwest;strokeColor=inherit;" parent="4e1TxizYNUvrVtqqxfv--30" vertex="1">
          <mxGeometry y="52" width="170" height="8" as="geometry" />
        </mxCell>
        <mxCell id="4e1TxizYNUvrVtqqxfv--34" value="" style="endArrow=open;endFill=1;endSize=12;html=1;rounded=0;entryX=0.499;entryY=1.136;entryDx=0;entryDy=0;entryPerimeter=0;" parent="WIyWlLk6GJQsqaUBKTNV-1" edge="1">
          <mxGeometry width="160" relative="1" as="geometry">
            <mxPoint y="-200" as="sourcePoint" />
            <mxPoint x="-0.13999999999987267" y="-248.46399999999994" as="targetPoint" />
          </mxGeometry>
        </mxCell>
        <mxCell id="4e1TxizYNUvrVtqqxfv--39" value="" style="endArrow=open;endFill=1;endSize=12;html=1;rounded=0;entryX=1;entryY=0.5;entryDx=0;entryDy=0;" parent="WIyWlLk6GJQsqaUBKTNV-1" target="4e1TxizYNUvrVtqqxfv--13" edge="1">
          <mxGeometry width="160" relative="1" as="geometry">
            <mxPoint x="230" y="-340" as="sourcePoint" />
            <mxPoint x="70" y="-239" as="targetPoint" />
            <Array as="points">
              <mxPoint x="230" y="-280" />
            </Array>
          </mxGeometry>
        </mxCell>
        <mxCell id="4e1TxizYNUvrVtqqxfv--42" value="VideoGameReview" style="swimlane;fontStyle=0;childLayout=stackLayout;horizontal=1;startSize=26;fillColor=none;horizontalStack=0;resizeParent=1;resizeParentMax=0;resizeLast=0;collapsible=1;marginBottom=0;whiteSpace=wrap;html=1;" parent="WIyWlLk6GJQsqaUBKTNV-1" vertex="1">
          <mxGeometry x="367" y="-580" width="160" height="110" as="geometry" />
        </mxCell>
        <mxCell id="4e1TxizYNUvrVtqqxfv--43" value="- bool value" style="text;strokeColor=none;fillColor=none;align=left;verticalAlign=top;spacingLeft=4;spacingRight=4;overflow=hidden;rotatable=0;points=[[0,0.5],[1,0.5]];portConstraint=eastwest;whiteSpace=wrap;html=1;" parent="4e1TxizYNUvrVtqqxfv--42" vertex="1">
          <mxGeometry y="26" width="160" height="26" as="geometry" />
        </mxCell>
        <mxCell id="4e1TxizYNUvrVtqqxfv--46" value="" style="endArrow=open;endFill=1;endSize=12;html=1;rounded=0;" parent="4e1TxizYNUvrVtqqxfv--42" edge="1">
          <mxGeometry width="160" relative="1" as="geometry">
            <mxPoint y="50.670000000000016" as="sourcePoint" />
            <mxPoint x="-47" y="50" as="targetPoint" />
          </mxGeometry>
        </mxCell>
        <mxCell id="4e1TxizYNUvrVtqqxfv--44" value="- String description&lt;br&gt;-LocalDateTime postedAt" style="text;strokeColor=none;fillColor=none;align=left;verticalAlign=top;spacingLeft=4;spacingRight=4;overflow=hidden;rotatable=0;points=[[0,0.5],[1,0.5]];portConstraint=eastwest;whiteSpace=wrap;html=1;" parent="4e1TxizYNUvrVtqqxfv--42" vertex="1">
          <mxGeometry y="52" width="160" height="58" as="geometry" />
        </mxCell>
        <mxCell id="4e1TxizYNUvrVtqqxfv--47" value="" style="endArrow=open;endFill=1;endSize=12;html=1;rounded=0;entryX=0.5;entryY=0;entryDx=0;entryDy=0;" parent="WIyWlLk6GJQsqaUBKTNV-1" target="4e1TxizYNUvrVtqqxfv--0" edge="1">
          <mxGeometry width="160" relative="1" as="geometry">
            <mxPoint x="440" y="-581.3299999999999" as="sourcePoint" />
            <mxPoint x="600" y="-581.3299999999999" as="targetPoint" />
            <Array as="points">
              <mxPoint x="440" y="-600" />
              <mxPoint x="-230" y="-600" />
            </Array>
          </mxGeometry>
        </mxCell>
        <mxCell id="4e1TxizYNUvrVtqqxfv--48" value="Friendships" style="swimlane;fontStyle=0;childLayout=stackLayout;horizontal=1;startSize=26;fillColor=none;horizontalStack=0;resizeParent=1;resizeParentMax=0;resizeLast=0;collapsible=1;marginBottom=0;whiteSpace=wrap;html=1;" parent="WIyWlLk6GJQsqaUBKTNV-1" vertex="1">
          <mxGeometry x="-530" y="-369" width="140" height="56" as="geometry" />
        </mxCell>
        <mxCell id="4e1TxizYNUvrVtqqxfv--54" value="- List&amp;lt;User&amp;gt; friends" style="text;html=1;align=center;verticalAlign=middle;resizable=0;points=[];autosize=1;strokeColor=none;fillColor=none;" parent="4e1TxizYNUvrVtqqxfv--48" vertex="1">
          <mxGeometry y="26" width="140" height="30" as="geometry" />
        </mxCell>
        <mxCell id="4e1TxizYNUvrVtqqxfv--58" value="ChatMessage" style="swimlane;fontStyle=0;childLayout=stackLayout;horizontal=1;startSize=26;fillColor=none;horizontalStack=0;resizeParent=1;resizeParentMax=0;resizeLast=0;collapsible=1;marginBottom=0;whiteSpace=wrap;html=1;" parent="WIyWlLk6GJQsqaUBKTNV-1" vertex="1">
          <mxGeometry x="-530" y="-564" width="140" height="104" as="geometry" />
        </mxCell>
        <mxCell id="4e1TxizYNUvrVtqqxfv--59" value="-LocalDateTime sentAt" style="text;strokeColor=none;fillColor=none;align=left;verticalAlign=top;spacingLeft=4;spacingRight=4;overflow=hidden;rotatable=0;points=[[0,0.5],[1,0.5]];portConstraint=eastwest;whiteSpace=wrap;html=1;" parent="4e1TxizYNUvrVtqqxfv--58" vertex="1">
          <mxGeometry y="26" width="140" height="26" as="geometry" />
        </mxCell>
        <mxCell id="4e1TxizYNUvrVtqqxfv--60" value="-User messageTo" style="text;strokeColor=none;fillColor=none;align=left;verticalAlign=top;spacingLeft=4;spacingRight=4;overflow=hidden;rotatable=0;points=[[0,0.5],[1,0.5]];portConstraint=eastwest;whiteSpace=wrap;html=1;" parent="4e1TxizYNUvrVtqqxfv--58" vertex="1">
          <mxGeometry y="52" width="140" height="26" as="geometry" />
        </mxCell>
        <mxCell id="4e1TxizYNUvrVtqqxfv--61" value="-String messageContent" style="text;strokeColor=none;fillColor=none;align=left;verticalAlign=top;spacingLeft=4;spacingRight=4;overflow=hidden;rotatable=0;points=[[0,0.5],[1,0.5]];portConstraint=eastwest;whiteSpace=wrap;html=1;" parent="4e1TxizYNUvrVtqqxfv--58" vertex="1">
          <mxGeometry y="78" width="140" height="26" as="geometry" />
        </mxCell>
        <mxCell id="4e1TxizYNUvrVtqqxfv--62" value="" style="endArrow=open;endFill=1;endSize=12;html=1;rounded=0;entryX=0.188;entryY=0.047;entryDx=0;entryDy=0;entryPerimeter=0;" parent="WIyWlLk6GJQsqaUBKTNV-1" target="4e1TxizYNUvrVtqqxfv--0" edge="1">
          <mxGeometry width="160" relative="1" as="geometry">
            <mxPoint x="-390" y="-502" as="sourcePoint" />
            <mxPoint x="-230" y="-502" as="targetPoint" />
            <Array as="points">
              <mxPoint x="-280" y="-502" />
            </Array>
          </mxGeometry>
        </mxCell>
        <mxCell id="4e1TxizYNUvrVtqqxfv--63" value="0..1" style="text;html=1;align=center;verticalAlign=middle;resizable=0;points=[];autosize=1;strokeColor=none;fillColor=none;" parent="WIyWlLk6GJQsqaUBKTNV-1" vertex="1">
          <mxGeometry x="-320" y="-282" width="40" height="30" as="geometry" />
        </mxCell>
        <mxCell id="4e1TxizYNUvrVtqqxfv--64" value="0..1" style="text;html=1;align=center;verticalAlign=middle;resizable=0;points=[];autosize=1;strokeColor=none;fillColor=none;" parent="WIyWlLk6GJQsqaUBKTNV-1" vertex="1">
          <mxGeometry x="-230" y="-292" width="40" height="30" as="geometry" />
        </mxCell>
        <mxCell id="4e1TxizYNUvrVtqqxfv--65" value="0..1" style="text;html=1;align=center;verticalAlign=middle;resizable=0;points=[];autosize=1;strokeColor=none;fillColor=none;" parent="WIyWlLk6GJQsqaUBKTNV-1" vertex="1">
          <mxGeometry x="-350" y="-372" width="40" height="30" as="geometry" />
        </mxCell>
        <mxCell id="4e1TxizYNUvrVtqqxfv--67" value="0..1" style="text;html=1;align=center;verticalAlign=middle;resizable=0;points=[];autosize=1;strokeColor=none;fillColor=none;" parent="WIyWlLk6GJQsqaUBKTNV-1" vertex="1">
          <mxGeometry x="-230" y="-452" width="40" height="30" as="geometry" />
        </mxCell>
        <mxCell id="4e1TxizYNUvrVtqqxfv--68" value="0..1" style="text;html=1;align=center;verticalAlign=middle;resizable=0;points=[];autosize=1;strokeColor=none;fillColor=none;" parent="WIyWlLk6GJQsqaUBKTNV-1" vertex="1">
          <mxGeometry x="-155" y="-402" width="40" height="30" as="geometry" />
        </mxCell>
        <mxCell id="4e1TxizYNUvrVtqqxfv--69" value="1..*" style="text;html=1;align=center;verticalAlign=middle;resizable=0;points=[];autosize=1;strokeColor=none;fillColor=none;" parent="WIyWlLk6GJQsqaUBKTNV-1" vertex="1">
          <mxGeometry x="74" y="-304" width="40" height="30" as="geometry" />
        </mxCell>
        <mxCell id="4e1TxizYNUvrVtqqxfv--70" value="0..1" style="text;html=1;align=center;verticalAlign=middle;resizable=0;points=[];autosize=1;strokeColor=none;fillColor=none;" parent="WIyWlLk6GJQsqaUBKTNV-1" vertex="1">
          <mxGeometry x="-165" y="-452" width="40" height="30" as="geometry" />
        </mxCell>
        <mxCell id="4e1TxizYNUvrVtqqxfv--71" value="*..1" style="text;html=1;align=center;verticalAlign=middle;resizable=0;points=[];autosize=1;strokeColor=none;fillColor=none;" parent="WIyWlLk6GJQsqaUBKTNV-1" vertex="1">
          <mxGeometry y="-252" width="40" height="30" as="geometry" />
        </mxCell>
        <mxCell id="4e1TxizYNUvrVtqqxfv--72" value="*..1" style="text;html=1;align=center;verticalAlign=middle;resizable=0;points=[];autosize=1;strokeColor=none;fillColor=none;" parent="WIyWlLk6GJQsqaUBKTNV-1" vertex="1">
          <mxGeometry x="120" y="-422" width="40" height="30" as="geometry" />
        </mxCell>
        <mxCell id="4e1TxizYNUvrVtqqxfv--73" value="1..1" style="text;html=1;align=center;verticalAlign=middle;resizable=0;points=[];autosize=1;strokeColor=none;fillColor=none;" parent="WIyWlLk6GJQsqaUBKTNV-1" vertex="1">
          <mxGeometry x="250" y="-462" width="40" height="30" as="geometry" />
        </mxCell>
        <mxCell id="4e1TxizYNUvrVtqqxfv--74" value="*..1" style="text;html=1;align=center;verticalAlign=middle;resizable=0;points=[];autosize=1;strokeColor=none;fillColor=none;" parent="WIyWlLk6GJQsqaUBKTNV-1" vertex="1">
          <mxGeometry x="310" y="-527" width="40" height="30" as="geometry" />
        </mxCell>
        <mxCell id="4e1TxizYNUvrVtqqxfv--75" value="0..*" style="text;html=1;align=center;verticalAlign=middle;resizable=0;points=[];autosize=1;strokeColor=none;fillColor=none;" parent="WIyWlLk6GJQsqaUBKTNV-1" vertex="1">
          <mxGeometry x="-70" y="-492" width="40" height="30" as="geometry" />
        </mxCell>
        <mxCell id="4e1TxizYNUvrVtqqxfv--76" value="*..1" style="text;html=1;align=center;verticalAlign=middle;resizable=0;points=[];autosize=1;strokeColor=none;fillColor=none;" parent="WIyWlLk6GJQsqaUBKTNV-1" vertex="1">
          <mxGeometry x="10" y="-352" width="40" height="30" as="geometry" />
        </mxCell>
        <mxCell id="4e1TxizYNUvrVtqqxfv--87" value="FriendRequest" style="swimlane;fontStyle=0;childLayout=stackLayout;horizontal=1;startSize=26;fillColor=none;horizontalStack=0;resizeParent=1;resizeParentMax=0;resizeLast=0;collapsible=1;marginBottom=0;whiteSpace=wrap;html=1;" parent="WIyWlLk6GJQsqaUBKTNV-1" vertex="1">
          <mxGeometry x="-530" y="-262" width="140" height="52" as="geometry" />
        </mxCell>
        <mxCell id="4e1TxizYNUvrVtqqxfv--88" value="- User toUser" style="text;strokeColor=none;fillColor=none;align=left;verticalAlign=top;spacingLeft=4;spacingRight=4;overflow=hidden;rotatable=0;points=[[0,0.5],[1,0.5]];portConstraint=eastwest;whiteSpace=wrap;html=1;" parent="4e1TxizYNUvrVtqqxfv--87" vertex="1">
          <mxGeometry y="26" width="140" height="26" as="geometry" />
        </mxCell>
        <mxCell id="4e1TxizYNUvrVtqqxfv--91" value="" style="endArrow=open;endFill=1;endSize=12;html=1;rounded=0;entryX=-0.026;entryY=0.959;entryDx=0;entryDy=0;entryPerimeter=0;exitX=0.996;exitY=0.038;exitDx=0;exitDy=0;exitPerimeter=0;" parent="WIyWlLk6GJQsqaUBKTNV-1" target="4e1TxizYNUvrVtqqxfv--1" edge="1" source="4e1TxizYNUvrVtqqxfv--88">
          <mxGeometry width="160" relative="1" as="geometry">
            <mxPoint x="-380" y="-236.67" as="sourcePoint" />
            <mxPoint x="-220" y="-236.67" as="targetPoint" />
            <Array as="points">
              <mxPoint x="-380" y="-300" />
            </Array>
          </mxGeometry>
        </mxCell>
        <mxCell id="4e1TxizYNUvrVtqqxfv--92" value="0..1" style="text;html=1;align=center;verticalAlign=middle;resizable=0;points=[];autosize=1;strokeColor=none;fillColor=none;" parent="WIyWlLk6GJQsqaUBKTNV-1" vertex="1">
          <mxGeometry x="-360" y="-330" width="40" height="30" as="geometry" />
        </mxCell>
        <mxCell id="4e1TxizYNUvrVtqqxfv--98" value="«interface»&lt;br&gt;&lt;b&gt;UserRepo&lt;/b&gt;" style="html=1;whiteSpace=wrap;" parent="WIyWlLk6GJQsqaUBKTNV-1" vertex="1">
          <mxGeometry x="-310" y="160" width="110" height="50" as="geometry" />
        </mxCell>
        <mxCell id="4e1TxizYNUvrVtqqxfv--99" value="«interface»&lt;br&gt;&lt;b&gt;FriendshipRepo&lt;/b&gt;" style="html=1;whiteSpace=wrap;" parent="WIyWlLk6GJQsqaUBKTNV-1" vertex="1">
          <mxGeometry x="-170" y="160" width="110" height="50" as="geometry" />
        </mxCell>
        <mxCell id="4e1TxizYNUvrVtqqxfv--100" value="«interface»&lt;br&gt;&lt;b&gt;ChattingRepo&lt;/b&gt;" style="html=1;whiteSpace=wrap;" parent="WIyWlLk6GJQsqaUBKTNV-1" vertex="1">
          <mxGeometry x="-20" y="160" width="110" height="50" as="geometry" />
        </mxCell>
        <mxCell id="4e1TxizYNUvrVtqqxfv--101" value="«interface»&lt;br&gt;&lt;b&gt;ForumRepo&lt;/b&gt;" style="html=1;whiteSpace=wrap;" parent="WIyWlLk6GJQsqaUBKTNV-1" vertex="1">
          <mxGeometry x="120" y="160" width="110" height="50" as="geometry" />
        </mxCell>
        <mxCell id="4e1TxizYNUvrVtqqxfv--102" value="«interface»&lt;br&gt;&lt;b&gt;VideoGameRepo&lt;/b&gt;" style="html=1;whiteSpace=wrap;" parent="WIyWlLk6GJQsqaUBKTNV-1" vertex="1">
          <mxGeometry x="260" y="160" width="110" height="50" as="geometry" />
        </mxCell>
        <mxCell id="4e1TxizYNUvrVtqqxfv--103" value="GetXUseCaseImpl" style="swimlane;fontStyle=0;childLayout=stackLayout;horizontal=1;startSize=26;fillColor=none;horizontalStack=0;resizeParent=1;resizeParentMax=0;resizeLast=0;collapsible=1;marginBottom=0;whiteSpace=wrap;html=1;" parent="WIyWlLk6GJQsqaUBKTNV-1" vertex="1">
          <mxGeometry x="-325" y="60" width="140" height="56" as="geometry" />
        </mxCell>
        <mxCell id="4e1TxizYNUvrVtqqxfv--125" value="- XRepo" style="text;html=1;align=center;verticalAlign=middle;resizable=0;points=[];autosize=1;strokeColor=none;fillColor=none;" parent="4e1TxizYNUvrVtqqxfv--103" vertex="1">
          <mxGeometry y="26" width="140" height="30" as="geometry" />
        </mxCell>
        <mxCell id="4e1TxizYNUvrVtqqxfv--107" value="«interface»&lt;br&gt;&lt;b&gt;GetXUseCse&lt;/b&gt;" style="html=1;whiteSpace=wrap;" parent="WIyWlLk6GJQsqaUBKTNV-1" vertex="1">
          <mxGeometry x="-306" y="-40" width="110" height="50" as="geometry" />
        </mxCell>
        <mxCell id="4e1TxizYNUvrVtqqxfv--109" value="" style="endArrow=block;endSize=10;endFill=0;shadow=0;strokeWidth=1;rounded=0;edgeStyle=elbowEdgeStyle;elbow=vertical;" parent="WIyWlLk6GJQsqaUBKTNV-1" edge="1">
          <mxGeometry width="160" relative="1" as="geometry">
            <mxPoint x="-254.01" y="50" as="sourcePoint" />
            <mxPoint x="-255" y="10" as="targetPoint" />
            <Array as="points">
              <mxPoint x="-186.01" y="65" />
            </Array>
          </mxGeometry>
        </mxCell>
        <mxCell id="4e1TxizYNUvrVtqqxfv--116" value="CreateXUseCaseImpl" style="swimlane;fontStyle=0;childLayout=stackLayout;horizontal=1;startSize=26;fillColor=none;horizontalStack=0;resizeParent=1;resizeParentMax=0;resizeLast=0;collapsible=1;marginBottom=0;whiteSpace=wrap;html=1;" parent="WIyWlLk6GJQsqaUBKTNV-1" vertex="1">
          <mxGeometry x="-145" y="60" width="140" height="56" as="geometry" />
        </mxCell>
        <mxCell id="4e1TxizYNUvrVtqqxfv--126" value="- XRepo" style="text;html=1;align=center;verticalAlign=middle;resizable=0;points=[];autosize=1;strokeColor=none;fillColor=none;" parent="4e1TxizYNUvrVtqqxfv--116" vertex="1">
          <mxGeometry y="26" width="140" height="30" as="geometry" />
        </mxCell>
        <mxCell id="4e1TxizYNUvrVtqqxfv--117" value="«interface»&lt;br&gt;&lt;b&gt;CreateXUseCse&lt;/b&gt;" style="html=1;whiteSpace=wrap;" parent="WIyWlLk6GJQsqaUBKTNV-1" vertex="1">
          <mxGeometry x="-126" y="-40" width="110" height="50" as="geometry" />
        </mxCell>
        <mxCell id="4e1TxizYNUvrVtqqxfv--118" value="" style="endArrow=block;endSize=10;endFill=0;shadow=0;strokeWidth=1;rounded=0;edgeStyle=elbowEdgeStyle;elbow=vertical;" parent="WIyWlLk6GJQsqaUBKTNV-1" edge="1">
          <mxGeometry width="160" relative="1" as="geometry">
            <mxPoint x="-74.00999999999999" y="50" as="sourcePoint" />
            <mxPoint x="-75" y="10" as="targetPoint" />
            <Array as="points">
              <mxPoint x="-6.009999999999991" y="65" />
            </Array>
          </mxGeometry>
        </mxCell>
        <mxCell id="4e1TxizYNUvrVtqqxfv--119" value="UpdateXUseCaseImpl" style="swimlane;fontStyle=0;childLayout=stackLayout;horizontal=1;startSize=26;fillColor=none;horizontalStack=0;resizeParent=1;resizeParentMax=0;resizeLast=0;collapsible=1;marginBottom=0;whiteSpace=wrap;html=1;" parent="WIyWlLk6GJQsqaUBKTNV-1" vertex="1">
          <mxGeometry x="45" y="60" width="140" height="56" as="geometry" />
        </mxCell>
        <mxCell id="4e1TxizYNUvrVtqqxfv--127" value="- XRepo" style="text;html=1;align=center;verticalAlign=middle;resizable=0;points=[];autosize=1;strokeColor=none;fillColor=none;" parent="4e1TxizYNUvrVtqqxfv--119" vertex="1">
          <mxGeometry y="26" width="140" height="30" as="geometry" />
        </mxCell>
        <mxCell id="4e1TxizYNUvrVtqqxfv--120" value="«interface»&lt;br&gt;&lt;b&gt;UpdateXUseCse&lt;/b&gt;" style="html=1;whiteSpace=wrap;" parent="WIyWlLk6GJQsqaUBKTNV-1" vertex="1">
          <mxGeometry x="64" y="-40" width="110" height="50" as="geometry" />
        </mxCell>
        <mxCell id="4e1TxizYNUvrVtqqxfv--121" value="" style="endArrow=block;endSize=10;endFill=0;shadow=0;strokeWidth=1;rounded=0;edgeStyle=elbowEdgeStyle;elbow=vertical;" parent="WIyWlLk6GJQsqaUBKTNV-1" edge="1">
          <mxGeometry width="160" relative="1" as="geometry">
            <mxPoint x="115.99000000000001" y="50" as="sourcePoint" />
            <mxPoint x="115" y="10" as="targetPoint" />
            <Array as="points">
              <mxPoint x="183.99" y="65" />
            </Array>
          </mxGeometry>
        </mxCell>
        <mxCell id="4e1TxizYNUvrVtqqxfv--122" value="DeleteXUseCaseImpl" style="swimlane;fontStyle=0;childLayout=stackLayout;horizontal=1;startSize=26;fillColor=none;horizontalStack=0;resizeParent=1;resizeParentMax=0;resizeLast=0;collapsible=1;marginBottom=0;whiteSpace=wrap;html=1;" parent="WIyWlLk6GJQsqaUBKTNV-1" vertex="1">
          <mxGeometry x="245" y="60" width="140" height="56" as="geometry" />
        </mxCell>
        <mxCell id="4e1TxizYNUvrVtqqxfv--128" value="- XRepo" style="text;html=1;align=center;verticalAlign=middle;resizable=0;points=[];autosize=1;strokeColor=none;fillColor=none;" parent="4e1TxizYNUvrVtqqxfv--122" vertex="1">
          <mxGeometry y="26" width="140" height="30" as="geometry" />
        </mxCell>
        <mxCell id="4e1TxizYNUvrVtqqxfv--123" value="«interface»&lt;br&gt;&lt;b&gt;DeleteXUseCse&lt;/b&gt;" style="html=1;whiteSpace=wrap;" parent="WIyWlLk6GJQsqaUBKTNV-1" vertex="1">
          <mxGeometry x="264" y="-40" width="110" height="50" as="geometry" />
        </mxCell>
        <mxCell id="4e1TxizYNUvrVtqqxfv--124" value="" style="endArrow=block;endSize=10;endFill=0;shadow=0;strokeWidth=1;rounded=0;edgeStyle=elbowEdgeStyle;elbow=vertical;" parent="WIyWlLk6GJQsqaUBKTNV-1" edge="1">
          <mxGeometry width="160" relative="1" as="geometry">
            <mxPoint x="315.99" y="50" as="sourcePoint" />
            <mxPoint x="315" y="10" as="targetPoint" />
            <Array as="points">
              <mxPoint x="383.99" y="65" />
            </Array>
          </mxGeometry>
        </mxCell>
        <mxCell id="qcc1vCtXtTCM_SFkqpv--0" value="XController" style="swimlane;fontStyle=0;childLayout=stackLayout;horizontal=1;startSize=26;fillColor=none;horizontalStack=0;resizeParent=1;resizeParentMax=0;resizeLast=0;collapsible=1;marginBottom=0;whiteSpace=wrap;html=1;" vertex="1" parent="WIyWlLk6GJQsqaUBKTNV-1">
          <mxGeometry x="-50" y="-120" width="140" height="50" as="geometry" />
        </mxCell>
        <mxCell id="qcc1vCtXtTCM_SFkqpv--12" value="" style="endArrow=open;endFill=1;endSize=12;html=1;rounded=0;entryX=0.5;entryY=0;entryDx=0;entryDy=0;" edge="1" parent="qcc1vCtXtTCM_SFkqpv--0" target="4e1TxizYNUvrVtqqxfv--107">
          <mxGeometry width="160" relative="1" as="geometry">
            <mxPoint y="27.5" as="sourcePoint" />
            <mxPoint x="160" y="27.5" as="targetPoint" />
            <Array as="points">
              <mxPoint x="-201" y="28" />
            </Array>
          </mxGeometry>
        </mxCell>
        <mxCell id="qcc1vCtXtTCM_SFkqpv--13" value="" style="endArrow=open;endFill=1;endSize=12;html=1;rounded=0;entryX=0.75;entryY=0;entryDx=0;entryDy=0;" edge="1" parent="WIyWlLk6GJQsqaUBKTNV-1" target="4e1TxizYNUvrVtqqxfv--117">
          <mxGeometry width="160" relative="1" as="geometry">
            <mxPoint x="-43" y="-70" as="sourcePoint" />
            <mxPoint x="120" y="-64" as="targetPoint" />
          </mxGeometry>
        </mxCell>
        <mxCell id="qcc1vCtXtTCM_SFkqpv--14" value="" style="endArrow=open;endFill=1;endSize=12;html=1;rounded=0;entryX=0.107;entryY=-0.028;entryDx=0;entryDy=0;entryPerimeter=0;" edge="1" parent="WIyWlLk6GJQsqaUBKTNV-1" target="4e1TxizYNUvrVtqqxfv--120">
          <mxGeometry width="160" relative="1" as="geometry">
            <mxPoint x="70" y="-70" as="sourcePoint" />
            <mxPoint x="234" y="-64" as="targetPoint" />
          </mxGeometry>
        </mxCell>
        <mxCell id="qcc1vCtXtTCM_SFkqpv--15" value="" style="endArrow=open;endFill=1;endSize=12;html=1;rounded=0;entryX=0.5;entryY=0;entryDx=0;entryDy=0;" edge="1" parent="WIyWlLk6GJQsqaUBKTNV-1" target="4e1TxizYNUvrVtqqxfv--123">
          <mxGeometry width="160" relative="1" as="geometry">
            <mxPoint x="95" y="-92.5" as="sourcePoint" />
            <mxPoint x="255" y="-92.5" as="targetPoint" />
            <Array as="points">
              <mxPoint x="319" y="-92" />
            </Array>
          </mxGeometry>
        </mxCell>
        <mxCell id="qcc1vCtXtTCM_SFkqpv--16" value="0..1" style="text;html=1;align=center;verticalAlign=middle;resizable=0;points=[];autosize=1;strokeColor=none;fillColor=none;" vertex="1" parent="WIyWlLk6GJQsqaUBKTNV-1">
          <mxGeometry x="-330" y="-452" width="40" height="30" as="geometry" />
        </mxCell>
      </root>
    </mxGraphModel>
  </diagram>
</mxfile>
